<svg width="26" height="26" viewBox="0 0 26 26" fill="none" xmlns="http://www.w3.org/2000/svg">
<g clip-path="url(#clip0_1701_6169)">
<path fill-rule="evenodd" clip-rule="evenodd" d="M16.9823 1.5H18C18.8284 1.5 19.5 2.17157 19.5 3V23C19.5 23.8284 18.8284 24.5 18 24.5H8C7.17157 24.5 6.5 23.8284 6.5 23V3C6.5 2.17157 7.17157 1.5 8 1.5H9.01772C9.00604 1.58165 9 1.66512 9 1.75C9 2.7165 9.7835 3.5 10.75 3.5H15.25C16.2165 3.5 17 2.7165 17 1.75C17 1.66512 16.994 1.58165 16.9823 1.5ZM10.0427 1.5H11.4573C11.485 1.57819 11.5 1.66234 11.5 1.75C11.5 2.16421 11.1642 2.5 10.75 2.5C10.3358 2.5 10 2.16421 10 1.75C10 1.66234 10.015 1.57819 10.0427 1.5ZM15.25 0H18C19.6569 0 21 1.34315 21 3V23C21 24.6569 19.6569 26 18 26H8C6.34315 26 5 24.6569 5 23V3C5 1.34315 6.34315 0 8 0H10.75H15.25Z" fill="black" fill-opacity="0.87"/>
</g>
<defs>
<clipPath id="clip0_1701_6169">
<rect width="26" height="26" fill="white"/>
</clipPath>
</defs>
</svg>
