<svg width="20" height="20" viewBox="0 0 20 20" fill="none" xmlns="http://www.w3.org/2000/svg">
<g clip-path="url(#clip0_2161_1624)">
<path fill-rule="evenodd" clip-rule="evenodd" d="M7.28631 0.000158718H11.9752C12.7896 0.000158718 13.4792 2.35369 13.6766 3.71837C14.4564 4.00901 15.0154 4.76281 15.0154 5.64126V6.66682H15.266C15.5483 6.66682 15.7787 6.89732 15.7787 7.17944V8.46166C15.7787 8.74409 15.5482 8.97459 15.266 8.97459H15.0154V14.3595C15.0154 15.2359 14.4588 15.9882 13.6814 16.2805C13.4912 17.6322 12.7967 20.0001 11.9752 20.0001H7.28591C6.46437 20.0001 5.76992 17.6322 5.57972 16.2802C4.80266 15.988 4.24603 15.2358 4.24603 14.3592V5.64095C4.24603 4.76249 4.80516 4.009 5.58484 3.71805C5.78202 2.35333 6.47167 0 7.28623 0L7.28631 0.000158718ZM5.88687 4.32238C5.32294 4.32238 4.86131 4.78369 4.86131 5.34793V14.6523C4.86131 15.2161 5.32262 15.6778 5.88687 15.6778L13.3746 15.6777C13.9385 15.6777 14.4001 15.2161 14.4001 14.6521V5.34778C14.4001 4.78385 13.9385 4.32222 13.3746 4.32222L5.88687 4.32238Z" fill="black" fill-opacity="0.87"/>
<path fill-rule="evenodd" clip-rule="evenodd" d="M9.63115 11.368C10.3842 11.368 10.9985 10.7536 10.9985 10.0002C10.9985 9.2473 10.3841 8.63286 9.63115 8.63286C8.87782 8.63286 8.26334 9.2473 8.26334 10.0002C8.26349 10.7535 8.87778 11.368 9.63115 11.368Z" fill="black" fill-opacity="0.87"/>
<path fill-rule="evenodd" clip-rule="evenodd" d="M13.7335 10.0002C13.7335 10.5875 13.2574 11.0637 12.6699 11.0637C12.0825 11.0637 11.6063 10.5875 11.6063 10.0002C11.6063 9.41282 12.0825 8.93663 12.6699 8.93663C13.2574 8.93663 13.7335 9.41282 13.7335 10.0002Z" fill="black" fill-opacity="0.87"/>
<path fill-rule="evenodd" clip-rule="evenodd" d="M12.2137 7.36802C12.2137 7.95536 11.7377 8.4314 11.1503 8.4314C10.5631 8.4314 10.0871 7.95536 10.0871 7.36802C10.0871 6.78084 10.5631 6.30481 11.1503 6.30481C11.7377 6.30481 12.2137 6.78084 12.2137 7.36802Z" fill="black" fill-opacity="0.87"/>
<path fill-rule="evenodd" clip-rule="evenodd" d="M9.17482 7.36801C9.17482 7.95567 8.69847 8.43186 8.11097 8.43186C7.52347 8.43186 7.04712 7.95567 7.04712 7.36801C7.04712 6.78051 7.52347 6.30432 8.11097 6.30432C8.69847 6.30432 9.17482 6.78051 9.17482 7.36801Z" fill="black" fill-opacity="0.87"/>
<path fill-rule="evenodd" clip-rule="evenodd" d="M7.65496 10.0002C7.65496 10.5875 7.17892 11.0637 6.59142 11.0637C6.00408 11.0637 5.52789 10.5875 5.52789 10.0002C5.52789 9.41282 6.00408 8.93663 6.59142 8.93663C7.17892 8.93663 7.65496 9.41282 7.65496 10.0002Z" fill="black" fill-opacity="0.87"/>
<path fill-rule="evenodd" clip-rule="evenodd" d="M9.17481 12.6323C9.17481 13.2195 8.69877 13.6955 8.11159 13.6955C7.52425 13.6955 7.04822 13.2195 7.04822 12.6323C7.04822 12.045 7.52425 11.5689 8.11159 11.5689C8.69877 11.5689 9.17481 12.045 9.17481 12.6323Z" fill="black" fill-opacity="0.87"/>
<path fill-rule="evenodd" clip-rule="evenodd" d="M12.2141 12.6323C12.2141 13.2198 11.7379 13.696 11.1502 13.696C10.5627 13.696 10.0865 13.2198 10.0865 12.6323C10.0865 12.0446 10.5627 11.5685 11.1502 11.5685C11.7379 11.5685 12.2141 12.0446 12.2141 12.6323Z" fill="black" fill-opacity="0.87"/>
</g>
<defs>
<clipPath id="clip0_2161_1624">
<rect width="20" height="20" fill="white"/>
</clipPath>
</defs>
</svg>
