<svg width="20" height="20" viewBox="0 0 20 20" fill="none" xmlns="http://www.w3.org/2000/svg">
<g clip-path="url(#clip0_1673_1419)">
<path d="M19.4199 8.93233H17.576H17.3157C17.0132 8.93233 16.7559 9.18871 16.7559 9.49211V10.4066V12.5903V15.23V17.5123C16.7559 17.8819 16.7424 18.2545 16.7559 18.6241C16.756 18.6296 16.7559 18.6348 16.7559 18.6403L17.3157 18.0805H15.8537H12.3665H8.12852H4.48493C3.89367 18.0805 3.29951 18.0631 2.70837 18.0805C2.70054 18.0807 2.69254 18.0805 2.6847 18.0805L3.24448 18.6403V17.7258V15.5421V12.9023V10.6201C3.24448 10.25 3.25343 9.87851 3.24448 9.50826C3.24432 9.50282 3.24448 9.49754 3.24448 9.49211C3.24448 9.18967 2.9881 8.93233 2.6847 8.93233H0.840841H0.580469C0.674671 8.95792 0.768712 8.98335 0.863069 9.00862C0.856992 9.0059 0.850914 9.00351 0.844997 9.00079C0.930723 9.11226 1.01645 9.22373 1.10233 9.33537C1.10009 9.32961 1.09801 9.32369 1.09577 9.31793C1.0769 9.46171 1.05819 9.60549 1.03932 9.7491C0.982223 9.86554 0.928645 9.86842 0.978222 9.82955C0.995016 9.81627 1.01069 9.80156 1.02684 9.78797C1.09002 9.73359 1.15319 9.67921 1.21652 9.62499C1.44475 9.42859 1.67312 9.2322 1.90121 9.03595C2.6537 8.3884 3.40635 7.74113 4.15884 7.09358C5.06581 6.31312 5.9731 5.53279 6.88028 4.75214C7.66458 4.07723 8.44888 3.40262 9.23306 2.72788C9.61498 2.39922 10.0079 2.07983 10.3806 1.74062C10.3857 1.73598 10.3913 1.73151 10.3967 1.72671H9.60505C10.1527 2.19804 10.7006 2.66921 11.2484 3.14051C12.0717 3.8487 12.8947 4.55689 13.718 5.26524C14.1889 5.67035 14.6597 6.07562 15.1307 6.48059C15.6598 6.93575 16.1887 7.39075 16.7178 7.84595C17.4755 8.49801 18.2335 9.15006 18.991 9.80192C19.0034 9.81263 19.0155 9.82415 19.0285 9.83422C19.0723 9.86733 19.0278 9.88332 18.9624 9.74978C18.9435 9.606 18.9248 9.46222 18.906 9.31861C18.9037 9.32436 18.9016 9.33028 18.8994 9.33604C18.9851 9.22456 19.0708 9.11309 19.1567 9.00146C19.1507 9.00418 19.1446 9.00658 19.1387 9.0093C19.0189 9.06095 18.9143 9.22441 18.8813 9.34388C18.8444 9.47774 18.8612 9.65623 18.9378 9.77505C19.0149 9.89468 19.1297 9.99991 19.2724 10.0324C19.4289 10.068 19.5577 10.0389 19.7035 9.97592C20.069 9.81823 20.0842 9.28534 19.8172 9.04046C19.7832 9.00927 19.7472 8.98 19.712 8.94994C19.5615 8.82055 19.411 8.69117 19.2607 8.56162C18.8183 8.18098 18.3761 7.80033 17.9336 7.41985C17.4056 6.96546 16.8777 6.51141 16.3496 6.05723C15.8064 5.58974 15.2632 5.12242 14.7197 4.65493C13.9485 3.99154 13.1774 3.32814 12.4062 2.66458C11.7473 2.0976 11.0903 1.52825 10.4291 0.96385C10.4181 0.954414 10.4072 0.944978 10.3962 0.935702C10.1537 0.726987 9.84875 0.72571 9.60453 0.935702C9.17705 1.30339 8.74985 1.67108 8.32253 2.03862C7.35238 2.87332 6.38192 3.70799 5.41173 4.54285C4.37121 5.43799 3.33052 6.33345 2.29 7.22862C1.63397 7.79302 0.977904 8.35726 0.32204 8.92182C0.274059 8.96308 0.224002 9.0029 0.177622 9.04609C-0.0987421 9.30358 -0.0434036 9.77553 0.27966 9.96812C0.419763 10.0516 0.556184 10.0522 0.706367 10.0522H2.52239H2.68456L2.12479 9.49248V10.407V12.5907V15.2304V17.5127C2.12479 17.8827 2.11583 18.2543 2.12479 18.6245C2.12495 18.6299 2.12479 18.6352 2.12479 18.6407C2.12479 18.9431 2.38116 19.2004 2.68456 19.2004H4.14651H7.6337H11.8717H15.5153C16.107 19.2004 16.7002 19.2118 17.2918 19.2004C17.2997 19.2003 17.3077 19.2004 17.3155 19.2004C17.6179 19.2004 17.8753 18.9441 17.8753 18.6407V17.7262V15.5424V12.9027V10.6205C17.8753 10.2509 17.8887 9.87822 17.8753 9.50863C17.8751 9.50319 17.8753 9.49791 17.8753 9.49248C17.6888 9.67896 17.502 9.86576 17.3155 10.0522H19.1594H19.4197C19.7126 10.0522 19.9929 9.79475 19.9795 9.49248C19.9662 9.18876 19.7337 8.93238 19.4199 8.93238L19.4199 8.93233Z" fill="black" fill-opacity="0.87"/>
<path d="M15.9807 3.20729V6.49968V6.95758C16.2993 6.82563 16.6177 6.69353 16.9363 6.56174C16.3452 6.05299 15.7539 5.54423 15.1628 5.03568C15.0776 4.96227 14.992 4.88886 14.9066 4.81529C14.9613 4.94724 15.0158 5.07934 15.0705 5.21113V3.46016V3.20731C15.0158 3.33926 14.9613 3.47136 14.9066 3.60315C14.9072 3.60251 14.9079 3.60187 14.9087 3.60107C14.7767 3.65576 14.6446 3.7103 14.5128 3.765H16.2863H16.5384C16.4064 3.7103 16.2743 3.65576 16.1425 3.60107C16.1432 3.60171 16.1438 3.60235 16.1446 3.60315C16.3519 3.81042 16.7317 3.82593 16.9363 3.60315C17.1413 3.37972 17.1575 3.03281 16.9363 2.81147C16.7185 2.59365 16.3608 2.64562 16.0783 2.64562H15.1121C14.9144 2.64562 14.7156 2.63954 14.5178 2.64562C14.1707 2.65634 13.9537 2.92039 13.9508 3.25223C13.9498 3.34867 13.9508 3.44527 13.9508 3.54171C13.9508 4.08756 13.9429 4.63423 13.9508 5.17975C13.9551 5.47595 14.1042 5.59782 14.2945 5.76143C14.5056 5.94295 14.7167 6.1248 14.928 6.30646C15.3334 6.65527 15.7391 7.00442 16.1448 7.35321C16.3193 7.50323 16.5366 7.5616 16.7562 7.469C16.9593 7.38327 17.1004 7.18192 17.1004 6.95738V3.66499V3.20709C17.1004 2.91425 16.8429 2.63389 16.5406 2.64732C16.2374 2.66123 15.9807 2.89361 15.9807 3.20725L15.9807 3.20729Z" fill="black" fill-opacity="0.87"/>
<path d="M9.75941 15.3653C9.76789 15.3737 9.77556 15.3827 9.78244 15.3926C9.75333 15.3547 9.72406 15.3171 9.69496 15.2794C9.70487 15.2944 9.71271 15.3085 9.72007 15.3248C9.7012 15.2802 9.68248 15.2357 9.66361 15.1911C9.66969 15.2077 9.67369 15.2229 9.67705 15.2402C9.67033 15.1905 9.66361 15.141 9.65705 15.0913C9.65977 15.1142 9.65977 15.1356 9.65705 15.1585C9.66377 15.1087 9.67049 15.0593 9.67705 15.0096C9.67369 15.0269 9.66937 15.0421 9.66361 15.0587C9.68248 15.0141 9.7012 14.9696 9.72007 14.925C9.71271 14.9413 9.70487 14.9554 9.69496 14.9704C9.72407 14.9325 9.75333 14.8949 9.78244 14.8572C9.76725 14.8764 9.75125 14.8925 9.73206 14.9076C9.76996 14.8784 9.80755 14.8492 9.84529 14.8201C9.83026 14.83 9.81618 14.8378 9.79987 14.8452C9.84449 14.8263 9.88895 14.8076 9.93357 14.7887C9.91694 14.7948 9.90175 14.7988 9.88447 14.8022C9.93421 14.7954 9.98363 14.7887 10.0334 14.7822C10.0105 14.7849 9.98907 14.7849 9.9662 14.7822C10.0159 14.7889 10.0654 14.7956 10.1151 14.8022C10.0978 14.7988 10.0826 14.7945 10.066 14.7887C10.1106 14.8076 10.1551 14.8263 10.1997 14.8452C10.1834 14.8378 10.1693 14.83 10.1543 14.8201C10.1922 14.8492 10.2298 14.8784 10.2675 14.9076C10.2483 14.8925 10.2322 14.8764 10.2171 14.8572C10.2462 14.8951 10.2755 14.9327 10.3046 14.9704C10.2947 14.9554 10.2869 14.9413 10.2795 14.925C10.2984 14.9696 10.3171 15.0141 10.336 15.0587C10.3299 15.042 10.3259 15.0269 10.3225 15.0096C10.3292 15.0593 10.336 15.1087 10.3425 15.1585C10.3398 15.1356 10.3398 15.1142 10.3425 15.0913C10.3358 15.141 10.3291 15.1905 10.3225 15.2402C10.3259 15.2229 10.3302 15.2077 10.336 15.1911C10.3171 15.2357 10.2984 15.2802 10.2795 15.3248C10.2869 15.3085 10.2947 15.2944 10.3046 15.2794C10.2755 15.3173 10.2462 15.3549 10.2171 15.3926C10.2323 15.3734 10.2483 15.3573 10.2675 15.3422C10.2296 15.3713 10.192 15.4006 10.1543 15.4297C10.1693 15.4198 10.1834 15.412 10.1997 15.4046C10.1551 15.4235 10.1106 15.4422 10.066 15.4611C10.0826 15.455 10.0978 15.451 10.1151 15.4476C10.0654 15.4544 10.0159 15.4611 9.9662 15.4676C9.98907 15.4649 10.0105 15.4649 10.0334 15.4676C9.98363 15.4609 9.93421 15.4542 9.88447 15.4476C9.90175 15.451 9.91694 15.4553 9.93357 15.4611C9.88895 15.4422 9.84449 15.4235 9.79987 15.4046C9.81618 15.412 9.83026 15.4198 9.84529 15.4297C9.80739 15.4006 9.7698 15.3713 9.73206 15.3422C9.74182 15.3493 9.75109 15.3568 9.75941 15.3653C9.86752 15.4651 10.0057 15.5292 10.1552 15.5292C10.2925 15.5292 10.4566 15.4683 10.5511 15.3653C10.649 15.2588 10.7217 15.1185 10.715 14.9694C10.7084 14.8245 10.6608 14.6748 10.5511 14.5736C10.3977 14.4321 10.2114 14.3462 9.99978 14.3452C9.79507 14.3446 9.59339 14.4298 9.44849 14.5736C9.14958 14.8703 9.14958 15.3792 9.44849 15.6759C9.74916 15.9743 10.2502 15.9764 10.5507 15.6759C10.6953 15.5313 10.7791 15.3293 10.7791 15.1246C10.7791 14.9131 10.692 14.7265 10.5507 14.5733C10.3516 14.3574 9.95802 14.3566 9.75908 14.5733C9.54749 14.8047 9.54701 15.1351 9.7594 15.3653L9.75941 15.3653Z" fill="black" fill-opacity="0.87"/>
<path d="M8.07504 13.2002C8.13341 13.1425 8.19355 13.0862 8.25576 13.0324C8.28439 13.0077 8.31398 12.9837 8.34325 12.9597C8.41426 12.9013 8.31414 12.9837 8.30646 12.9877C8.32933 12.9755 8.35012 12.955 8.37123 12.94C8.50446 12.8442 8.64504 12.7586 8.79123 12.6841C8.85664 12.6507 8.92333 12.6216 8.98986 12.591C8.82769 12.6656 8.96284 12.6038 9.0009 12.5894C9.0396 12.5749 9.07879 12.5613 9.11829 12.5482C9.27007 12.4983 9.4252 12.4592 9.58275 12.4319C9.61809 12.4257 9.65376 12.4209 9.68927 12.4151C9.50726 12.4455 9.64688 12.4217 9.69326 12.4172C9.77499 12.4095 9.85672 12.405 9.9386 12.4036C10.0154 12.4023 10.0921 12.4034 10.1691 12.4074C10.2049 12.4092 10.2407 12.4117 10.2764 12.4146C10.3034 12.4169 10.459 12.4359 10.3549 12.4212C10.2535 12.4068 10.376 12.4247 10.4024 12.4292C10.4429 12.4361 10.4832 12.4437 10.5235 12.4521C10.6041 12.4688 10.6842 12.4888 10.7635 12.5115C10.8331 12.5317 10.9022 12.5539 10.9702 12.5786C11.0089 12.5926 11.0473 12.6109 11.0866 12.6232C11.0932 12.6253 10.9695 12.5718 11.0249 12.5969C11.0485 12.6077 11.0725 12.6181 11.0964 12.6289C11.2592 12.7041 11.4154 12.7929 11.5637 12.8938C11.6035 12.9208 11.6421 12.9498 11.6812 12.9778C11.7388 13.0192 11.5899 12.904 11.6448 12.9493C11.6656 12.9666 11.6868 12.983 11.7076 13.0006C11.7833 13.0638 11.8556 13.1306 11.9255 13.2001C12.1337 13.4062 12.5119 13.4235 12.7171 13.2001C12.9214 12.9774 12.9394 12.6286 12.7171 12.4084C12.1719 11.8686 11.4599 11.4779 10.7002 11.3493C9.89318 11.2129 9.09815 11.3156 8.35352 11.6554C7.95656 11.8368 7.5932 12.1016 7.28372 12.4082C7.07533 12.6147 7.06157 12.996 7.28372 13.1999C7.50794 13.4061 7.85274 13.4203 8.07506 13.2002L8.07504 13.2002Z" fill="black" fill-opacity="0.87"/>
<path d="M5.7421 10.8669C5.86637 10.7433 5.99464 10.624 6.12818 10.5102C6.18992 10.4576 6.25261 10.406 6.31627 10.3556C6.42134 10.2723 6.24078 10.4117 6.31787 10.3543C6.35657 10.3254 6.39511 10.2966 6.4343 10.2683C6.70459 10.073 6.98973 9.89834 7.28673 9.74657C7.35662 9.71075 7.42715 9.67652 7.49833 9.6431C7.53623 9.62534 7.57429 9.60823 7.61236 9.59112C7.63139 9.58264 7.65058 9.57449 7.66961 9.56601C7.73071 9.53866 7.53239 9.62199 7.63651 9.57992C7.78556 9.51963 7.9359 9.46285 8.08864 9.41263C8.39699 9.31139 8.71269 9.23287 9.03242 9.17817C9.07288 9.17129 9.1135 9.16474 9.15397 9.1585C9.18036 9.1545 9.30286 9.13723 9.20147 9.15114C9.09191 9.16618 9.24385 9.14666 9.26433 9.14426C9.31023 9.13915 9.35613 9.13435 9.40203 9.13035C9.56004 9.11596 9.71886 9.10732 9.87766 9.10444C10.203 9.09836 10.5203 9.13195 10.8433 9.15706C10.8382 9.15658 10.6943 9.13563 10.7861 9.14938C10.8064 9.15258 10.8266 9.15514 10.847 9.15834C10.8827 9.16378 10.918 9.16954 10.9534 9.17529C11.0396 9.18985 11.1253 9.206 11.2109 9.22407C11.3671 9.25702 11.5221 9.29556 11.6755 9.33938C11.8295 9.38368 11.9821 9.43359 12.1324 9.48892C12.2103 9.51755 12.2876 9.54825 12.3646 9.5796C12.4544 9.61607 12.2484 9.52922 12.3602 9.57832C12.4032 9.59719 12.4459 9.61639 12.4884 9.63606C12.8232 9.79151 13.1449 9.97512 13.4488 10.1846C13.5282 10.2393 13.6056 10.2966 13.683 10.3538C13.7567 10.4085 13.6527 10.331 13.6465 10.3254C13.6662 10.3433 13.6891 10.3588 13.7098 10.3756C13.7479 10.406 13.7855 10.4367 13.8229 10.468C13.9741 10.5945 14.119 10.7277 14.2586 10.8667C14.4663 11.0737 14.8454 11.09 15.0503 10.8667C15.255 10.6438 15.2721 10.2958 15.0503 10.0751C14.0192 9.04894 12.674 8.33289 11.2359 8.09301C9.77837 7.85007 8.30397 8.04391 6.96182 8.66269C6.21555 9.00654 5.53267 9.49608 4.95099 10.0749C4.74324 10.2818 4.72868 10.6625 4.95099 10.8666C5.17458 11.0724 5.52051 11.0876 5.74234 10.8669L5.7421 10.8669Z" fill="black" fill-opacity="0.87"/>
</g>
<defs>
<clipPath id="clip0_1673_1419">
<rect width="20" height="20" fill="white"/>
</clipPath>
</defs>
</svg>
