<svg width="20" height="20" viewBox="0 0 20 20" fill="none" xmlns="http://www.w3.org/2000/svg">
<g clip-path="url(#clip0_1444_346)">
<path d="M12.1891 4.33739C13.0463 4.50433 13.8342 4.92279 14.4518 5.53923C15.0694 6.15566 15.4887 6.94202 15.6559 7.79765M12.1891 0.833334C13.9701 1.03082 15.631 1.82689 16.899 3.09083C18.1669 4.35477 18.9666 6.01146 19.1667 7.78889M18.289 14.7795V17.4075C18.29 17.6515 18.2399 17.893 18.142 18.1165C18.0441 18.3401 17.9005 18.5407 17.7203 18.7057C17.5402 18.8706 17.3276 18.9962 17.096 19.0743C16.8645 19.1525 16.6191 19.1815 16.3756 19.1596C13.6748 18.8667 11.0805 17.9455 8.80116 16.4702C6.68051 15.1252 4.88257 13.3307 3.53501 11.2141C2.05169 8.92876 1.12859 6.32682 0.840498 3.61906C0.818565 3.37681 0.84741 3.13266 0.925196 2.90215C1.00298 2.67164 1.128 2.45982 1.2923 2.28018C1.4566 2.10054 1.65658 1.95701 1.8795 1.85873C2.10242 1.76045 2.34341 1.70958 2.58711 1.70935H5.22018C5.64613 1.70516 6.05907 1.85571 6.38204 2.13293C6.705 2.41015 6.91595 2.79512 6.97557 3.21609C7.0867 4.05713 7.29281 4.88291 7.58995 5.67769C7.70804 5.99124 7.7336 6.332 7.66359 6.6596C7.59359 6.9872 7.43097 7.28791 7.19499 7.52608L6.08032 8.63862C7.32976 10.8318 9.14913 12.6477 11.3465 13.8947L12.4611 12.7822C12.6998 12.5466 13.0011 12.3843 13.3293 12.3145C13.6575 12.2446 13.9989 12.2701 14.3131 12.388C15.1094 12.6845 15.9367 12.8903 16.7794 13.0012C17.2057 13.0612 17.5951 13.2755 17.8735 13.6034C18.1518 13.9313 18.2997 14.3499 18.289 14.7795Z" stroke="white" stroke-linecap="round" stroke-linejoin="round"/>
</g>
<defs>
<clipPath id="clip0_1444_346">
<rect width="20" height="20" fill="white"/>
</clipPath>
</defs>
</svg>
