<svg width="20" height="20" viewBox="0 0 20 20" fill="none" xmlns="http://www.w3.org/2000/svg">
<path d="M4.4444 0.833334L1.66663 4.5V17.3333C1.66663 17.8196 1.86173 18.2859 2.20902 18.6297C2.55631 18.9735 3.02734 19.1667 3.51848 19.1667H16.4814C16.9726 19.1667 17.4436 18.9735 17.7909 18.6297C18.1382 18.2859 18.3333 17.8196 18.3333 17.3333V4.5L15.5555 0.833334H4.4444Z" stroke="white" stroke-linecap="round" stroke-linejoin="round"/>
<path d="M2.5 5H17.5" stroke="white" stroke-linecap="round" stroke-linejoin="round"/>
<path d="M13.3333 9.16667C13.3333 10.0507 12.9821 10.8986 12.357 11.5237C11.7319 12.1488 10.884 12.5 9.99996 12.5C9.1159 12.5 8.26806 12.1488 7.64294 11.5237C7.01782 10.8986 6.66663 10.0507 6.66663 9.16667" stroke="white" stroke-linecap="round" stroke-linejoin="round"/>
</svg>
