<svg width="20" height="20" viewBox="0 0 20 20" fill="none" xmlns="http://www.w3.org/2000/svg">
<rect x="0.5" y="2.03845" width="19" height="15.9231" rx="2.5" stroke="black" stroke-opacity="0.87"/>
<path d="M2.75774 4.32845C2.75774 4.24179 2.78774 4.16845 2.84774 4.10845C2.90774 4.04845 2.98107 4.01845 3.06774 4.01845H3.13274C3.20941 4.01845 3.27107 4.03512 3.31774 4.06845C3.36441 4.10179 3.40941 4.14512 3.45274 4.19845L5.20274 6.46345V4.31345C5.20274 4.23012 5.23107 4.16012 5.28774 4.10345C5.34774 4.04345 5.41941 4.01345 5.50274 4.01345C5.58941 4.01345 5.66107 4.04345 5.71774 4.10345C5.77774 4.16012 5.80774 4.23012 5.80774 4.31345V7.25345C5.80774 7.34012 5.77941 7.41345 5.72274 7.47345C5.66607 7.53012 5.59441 7.55845 5.50774 7.55845H5.48274C5.40941 7.55845 5.34774 7.54179 5.29774 7.50845C5.25107 7.47512 5.20607 7.43012 5.16274 7.37345L3.36274 5.04345V7.26345C3.36274 7.34679 3.33274 7.41845 3.27274 7.47845C3.21607 7.53512 3.14607 7.56345 3.06274 7.56345C2.97607 7.56345 2.90274 7.53512 2.84274 7.47845C2.78607 7.41845 2.75774 7.34679 2.75774 7.26345V4.32845ZM8.44793 6.03345C8.43793 5.93679 8.41627 5.84679 8.38293 5.76345C8.3496 5.67679 8.3046 5.60345 8.24793 5.54345C8.19127 5.48012 8.12293 5.43012 8.04293 5.39345C7.96627 5.35679 7.87793 5.33845 7.77793 5.33845C7.58793 5.33845 7.43293 5.40179 7.31293 5.52845C7.19293 5.65512 7.1196 5.82345 7.09293 6.03345H8.44793ZM8.79793 7.24845C8.67793 7.35512 8.54127 7.44012 8.38793 7.50345C8.23793 7.56679 8.05793 7.59845 7.84793 7.59845C7.65793 7.59845 7.4796 7.56512 7.31293 7.49845C7.1496 7.43179 7.00627 7.33845 6.88293 7.21845C6.76293 7.09845 6.66793 6.95512 6.59793 6.78845C6.52793 6.61845 6.49293 6.43179 6.49293 6.22845V6.21845C6.49293 6.02845 6.5246 5.85012 6.58793 5.68345C6.65127 5.51679 6.7396 5.37179 6.85293 5.24845C6.9696 5.12179 7.10627 5.02345 7.26293 4.95345C7.4196 4.88012 7.59293 4.84345 7.78293 4.84345C7.99293 4.84345 8.17627 4.88345 8.33293 4.96345C8.4896 5.04012 8.6196 5.14179 8.72293 5.26845C8.8296 5.39179 8.90793 5.53012 8.95793 5.68345C9.01127 5.83679 9.03793 5.99012 9.03793 6.14345C9.03793 6.23012 9.0096 6.30012 8.95293 6.35345C8.89627 6.40679 8.8296 6.43345 8.75293 6.43345H7.09793C7.13127 6.65345 7.21627 6.82012 7.35293 6.93345C7.4896 7.04679 7.65793 7.10345 7.85793 7.10345C7.9846 7.10345 8.09793 7.08345 8.19793 7.04345C8.30127 7.00012 8.39627 6.94345 8.48293 6.87345C8.50627 6.85679 8.52793 6.84345 8.54793 6.83345C8.57127 6.82345 8.60127 6.81845 8.63793 6.81845C8.7046 6.81845 8.76127 6.84179 8.80793 6.88845C8.8546 6.93512 8.87793 6.99345 8.87793 7.06345C8.87793 7.10012 8.8696 7.13512 8.85293 7.16845C8.8396 7.19845 8.82127 7.22512 8.79793 7.24845ZM10.5405 7.58345C10.3772 7.58345 10.2655 7.49345 10.2055 7.31345L9.49551 5.30345C9.48885 5.28345 9.48218 5.26012 9.47551 5.23345C9.46885 5.20345 9.46551 5.17512 9.46551 5.14845C9.46551 5.07512 9.49218 5.01012 9.54551 4.95345C9.59885 4.89679 9.67051 4.86845 9.76051 4.86845C9.83718 4.86845 9.89885 4.89179 9.94551 4.93845C9.99551 4.98179 10.0322 5.03845 10.0555 5.10845L10.5655 6.70845L11.0805 5.10845C11.1038 5.03845 11.1422 4.98179 11.1955 4.93845C11.2488 4.89179 11.3138 4.86845 11.3905 4.86845H11.4255C11.5022 4.86845 11.5672 4.89179 11.6205 4.93845C11.6738 4.98179 11.7122 5.03845 11.7355 5.10845L12.2555 6.70845L12.7705 5.10345C12.7905 5.03679 12.8238 4.98179 12.8705 4.93845C12.9205 4.89179 12.9855 4.86845 13.0655 4.86845C13.1488 4.86845 13.2172 4.89679 13.2705 4.95345C13.3238 5.00679 13.3505 5.07179 13.3505 5.14845C13.3505 5.19845 13.3422 5.24345 13.3255 5.28345L12.6055 7.31345C12.5722 7.40679 12.5255 7.47512 12.4655 7.51845C12.4088 7.56179 12.3438 7.58345 12.2705 7.58345H12.2505C12.1738 7.58345 12.1055 7.56179 12.0455 7.51845C11.9888 7.47512 11.9472 7.41012 11.9205 7.32345L11.4055 5.75345L10.8855 7.32345C10.8588 7.41012 10.8155 7.47512 10.7555 7.51845C10.6988 7.56179 10.6338 7.58345 10.5605 7.58345H10.5405ZM14.8232 7.58845C14.6532 7.58845 14.4815 7.56345 14.3082 7.51345C14.1349 7.46012 13.9715 7.38012 13.8182 7.27345C13.7849 7.25679 13.7565 7.23012 13.7332 7.19345C13.7132 7.15679 13.7032 7.11345 13.7032 7.06345C13.7032 6.99679 13.7265 6.94012 13.7732 6.89345C13.8199 6.84345 13.8782 6.81845 13.9482 6.81845C13.9982 6.81845 14.0415 6.83012 14.0782 6.85345C14.2049 6.94012 14.3332 7.00512 14.4632 7.04845C14.5932 7.08845 14.7182 7.10845 14.8382 7.10845C14.9682 7.10845 15.0682 7.08345 15.1382 7.03345C15.2115 6.98012 15.2482 6.91012 15.2482 6.82345V6.81345C15.2482 6.76345 15.2315 6.72012 15.1982 6.68345C15.1682 6.64679 15.1249 6.61512 15.0682 6.58845C15.0149 6.56179 14.9515 6.53679 14.8782 6.51345C14.8082 6.49012 14.7349 6.46679 14.6582 6.44345C14.5615 6.41679 14.4632 6.38512 14.3632 6.34845C14.2665 6.31179 14.1782 6.26512 14.0982 6.20845C14.0215 6.14845 13.9582 6.07512 13.9082 5.98845C13.8582 5.90179 13.8332 5.79512 13.8332 5.66845V5.65845C13.8332 5.53512 13.8565 5.42345 13.9032 5.32345C13.9532 5.22345 14.0199 5.13845 14.1032 5.06845C14.1899 4.99845 14.2899 4.94512 14.4032 4.90845C14.5199 4.87179 14.6432 4.85345 14.7732 4.85345C14.9132 4.85345 15.0549 4.87345 15.1982 4.91345C15.3415 4.95012 15.4765 5.00179 15.6032 5.06845C15.6465 5.09179 15.6815 5.12345 15.7082 5.16345C15.7349 5.20012 15.7482 5.24512 15.7482 5.29845C15.7482 5.36845 15.7232 5.42679 15.6732 5.47345C15.6265 5.52012 15.5682 5.54345 15.4982 5.54345C15.4715 5.54345 15.4499 5.54179 15.4332 5.53845C15.4165 5.53179 15.3982 5.52345 15.3782 5.51345C15.2715 5.45679 15.1649 5.41345 15.0582 5.38345C14.9515 5.35012 14.8515 5.33345 14.7582 5.33345C14.6415 5.33345 14.5499 5.35845 14.4832 5.40845C14.4199 5.45512 14.3882 5.51679 14.3882 5.59345V5.60345C14.3882 5.65012 14.4049 5.69179 14.4382 5.72845C14.4715 5.76512 14.5149 5.79845 14.5682 5.82845C14.6249 5.85512 14.6882 5.88179 14.7582 5.90845C14.8315 5.93179 14.9065 5.95512 14.9832 5.97845C15.0765 6.00845 15.1715 6.04345 15.2682 6.08345C15.3682 6.12345 15.4565 6.17345 15.5332 6.23345C15.6132 6.29012 15.6782 6.36012 15.7282 6.44345C15.7782 6.52679 15.8032 6.62845 15.8032 6.74845V6.75845C15.8032 6.89845 15.7782 7.02012 15.7282 7.12345C15.6782 7.22679 15.6082 7.31345 15.5182 7.38345C15.4315 7.45012 15.3282 7.50179 15.2082 7.53845C15.0882 7.57179 14.9599 7.58845 14.8232 7.58845Z" fill="black" fill-opacity="0.87"/>
<path d="M3.07693 10.7692H7.69232" stroke="black" stroke-opacity="0.87" stroke-linecap="round"/>
<path d="M3.07693 13.0769H7.69232" stroke="black" stroke-opacity="0.87" stroke-linecap="round"/>
<path d="M3.07693 15.3846H7.69232" stroke="black" stroke-opacity="0.87" stroke-linecap="round"/>
<rect x="10.7692" y="10.7692" width="6.15385" height="4.61538" rx="1" fill="black" fill-opacity="0.87" stroke="black" stroke-opacity="0.87"/>
</svg>
